<svg width="24" height="23" viewBox="0 0 24 23" fill="none" xmlns="http://www.w3.org/2000/svg">
<path d="M18 2C18.7956 2 19.5587 2.31607 20.1213 2.87868C20.6839 3.44129 21 4.20435 21 5V17C21 17.7956 20.6839 18.5587 20.1213 19.1213C19.5587 19.6839 18.7956 20 18 20H6C5.20435 20 4.44129 19.6839 3.87868 19.1213C3.31607 18.5587 3 17.7956 3 17V5C3 4.20435 3.31607 3.44129 3.87868 2.87868C4.44129 2.31607 5.20435 2 6 2H18ZM18 4H6C5.73478 4 5.48043 4.10536 5.29289 4.29289C5.10536 4.48043 5 4.73478 5 5V17C5 17.2652 5.10536 17.5196 5.29289 17.7071C5.48043 17.8946 5.73478 18 6 18H18C18.2652 18 18.5196 17.8946 18.7071 17.7071C18.8946 17.5196 19 17.2652 19 17V5C19 4.73478 18.8946 4.48043 18.7071 4.29289C18.5196 4.10536 18.2652 4 18 4ZM8 9C8.24493 9.00003 8.48134 9.08996 8.66437 9.25272C8.84741 9.41547 8.96434 9.63975 8.993 9.883L9 10V15C8.99972 15.2549 8.90212 15.5 8.72715 15.6854C8.55218 15.8707 8.31305 15.9822 8.05861 15.9972C7.80416 16.0121 7.55362 15.9293 7.35817 15.7657C7.16271 15.6021 7.0371 15.3701 7.007 15.117L7 15V10C7 9.73478 7.10536 9.48043 7.29289 9.29289C7.48043 9.10536 7.73478 9 8 9ZM11 8C11.2342 7.99996 11.461 8.08213 11.6408 8.23216C11.8206 8.3822 11.9421 8.59059 11.984 8.821C12.1852 8.70431 12.3933 8.59979 12.607 8.508C13.274 8.223 14.273 8.066 15.175 8.349C15.648 8.499 16.123 8.779 16.475 9.256C16.79 9.681 16.96 10.198 16.994 10.779L17 11V15C16.9997 15.2549 16.9021 15.5 16.7272 15.6854C16.5522 15.8707 16.313 15.9822 16.0586 15.9972C15.8042 16.0121 15.5536 15.9293 15.3582 15.7657C15.1627 15.6021 15.0371 15.3701 15.007 15.117L15 15V11C15 10.67 14.92 10.516 14.868 10.445C14.7934 10.3522 14.6905 10.2862 14.575 10.257C14.227 10.147 13.726 10.205 13.393 10.347C12.893 10.561 12.435 10.897 12.123 11.208L12 11.34V15C11.9997 15.2549 11.9021 15.5 11.7272 15.6854C11.5522 15.8707 11.313 15.9822 11.0586 15.9972C10.8042 16.0121 10.5536 15.9293 10.3582 15.7657C10.1627 15.6021 10.0371 15.3701 10.007 15.117L10 15V9C10 8.73478 10.1054 8.48043 10.2929 8.29289C10.4804 8.10536 10.7348 8 11 8ZM8 6C8.26522 6 8.51957 6.10536 8.70711 6.29289C8.89464 6.48043 9 6.73478 9 7C9 7.26522 8.89464 7.51957 8.70711 7.70711C8.51957 7.89464 8.26522 8 8 8C7.73478 8 7.48043 7.89464 7.29289 7.70711C7.10536 7.51957 7 7.26522 7 7C7 6.73478 7.10536 6.48043 7.29289 6.29289C7.48043 6.10536 7.73478 6 8 6Z" fill="#BABABA"/>
</svg>
